<svg width="93" height="44" viewBox="0 0 93 44" fill="none" xmlns="http://www.w3.org/2000/svg">
<path d="M14.928 32.056H16.016C16.8693 32.056 18.1173 32.184 19.76 32.44C21.4027 32.696 22.5333 32.824 23.152 32.824C23.7707 32.824 24.2507 32.8027 24.592 32.76C24.8907 30.328 25.2853 28.024 25.776 25.848C26.2667 23.672 26.64 22.04 26.896 20.952C27.152 19.864 27.3653 19 27.536 18.36C27.7067 17.6987 27.792 17.336 27.792 17.272C27.792 17.1867 27.7707 17.144 27.728 17.144C27.5573 17.144 27.2587 17.4427 26.832 18.04L14.928 32.056ZM13.904 33.208C9.808 37.88 6.928 40.9093 5.264 42.296C4.64533 42.7653 3.728 43.064 2.512 43.192C2.448 43.192 2.21333 43.2347 1.808 43.32C1.38133 43.4053 1.04 43.448 0.784 43.448C0.528 43.448 0.4 43.3627 0.4 43.192C0.4 42.9787 0.570667 42.8293 0.912 42.744C1.72267 42.4667 2.40533 42.0827 2.96 41.592C6.18133 38.776 9.54133 35.608 13.04 32.088C16.5387 28.5467 20.816 23.8213 25.872 17.912C26.2133 17.528 26.4907 17.208 26.704 16.952C26.9387 16.6747 27.1733 16.4293 27.408 16.216C27.6427 16.0027 27.8133 15.8533 27.92 15.768C28.0267 15.6613 28.1867 15.544 28.4 15.416C28.6347 15.288 28.784 15.2027 28.848 15.16C29.1253 15.032 29.4027 14.9253 29.68 14.84C29.9787 14.7333 30.3093 14.5947 30.672 14.424C31.056 14.232 31.3227 14.136 31.472 14.136C31.6213 14.136 31.696 14.2213 31.696 14.392V14.456C31.696 14.6907 31.5787 15.0747 31.344 15.608C31.1093 16.12 30.992 16.3973 30.992 16.44C30.3947 18.0613 29.7227 20.4293 28.976 23.544C28.2507 26.6587 27.7067 29.6027 27.344 32.376C28.7947 32.0133 30.1173 31.352 31.312 30.392C31.696 30.0933 31.9307 29.944 32.016 29.944C32.1013 29.944 32.144 30.008 32.144 30.136C32.144 30.2427 31.9093 30.488 31.44 30.872C30.9707 31.2347 30.3307 31.6293 29.52 32.056C28.7307 32.4827 27.984 32.7813 27.28 32.952C27.0667 34.808 26.96 36.2587 26.96 37.304C26.96 40.5467 27.6427 42.168 29.008 42.168C29.7973 42.168 30.8107 41.7947 32.048 41.048C33.3067 40.28 34.5653 39.3413 35.824 38.232C37.104 37.1227 38.0747 36.0667 38.736 35.064C38.8213 34.936 38.9067 34.872 38.992 34.872C39.0773 34.872 39.12 34.904 39.12 34.968C39.12 35.032 39.0987 35.1067 39.056 35.192C37.904 36.728 36.752 37.9973 35.6 39C34.4693 40.0027 33.1147 40.9627 31.536 41.88C29.9787 42.7973 28.5493 43.256 27.248 43.256C25.9467 43.256 25.104 42.8613 24.72 42.072C24.336 41.2613 24.144 40.0133 24.144 38.328C24.144 36.6213 24.2507 35.0213 24.464 33.528C22.544 33.7413 21.2 33.848 20.432 33.848C19.6853 33.848 18.608 33.7307 17.2 33.496C15.792 33.2613 14.9173 33.144 14.576 33.144C14.256 33.144 14.032 33.1653 13.904 33.208ZM50.335 32.568L48.607 36.152C50.783 33.7627 53.407 30.5947 56.479 26.648C59.5723 22.7013 61.8123 19.5653 63.199 17.24C64.5857 14.9147 66.0043 12.152 67.455 8.952C68.927 5.752 69.663 3.512 69.663 2.232C69.663 1.63467 69.471 1.336 69.087 1.336C68.3403 1.336 67.423 1.92266 66.335 3.096C65.247 4.26933 64.1483 5.77333 63.039 7.608C61.0977 10.8507 59.4443 13.88 58.079 16.696L50.655 31.992C50.6977 32.1627 50.719 32.3333 50.719 32.504C50.719 32.6747 50.655 32.76 50.527 32.76C50.463 32.76 50.399 32.696 50.335 32.568ZM49.439 30.584C48.7563 29.5173 47.775 28.984 46.495 28.984C45.2363 28.984 43.903 29.5813 42.495 30.776C41.1083 31.9707 39.9883 33.4 39.135 35.064C38.2817 36.728 37.855 38.2853 37.855 39.736C37.855 41.1867 38.4523 41.912 39.647 41.912C41.247 41.912 43.2737 40.888 45.727 38.84C46.0897 37.5387 47.327 34.7867 49.439 30.584ZM49.759 29.88L55.839 17.656C57.7163 13.816 58.975 11.3947 59.615 10.392C60.2763 9.38933 60.9483 8.38666 61.631 7.384C62.335 6.36 62.9857 5.528 63.583 4.888C65.2257 3.16 66.7403 1.89066 68.127 1.08C68.8523 0.653332 69.4497 0.439999 69.919 0.439999C70.687 0.439999 71.071 0.973331 71.071 2.04C71.071 4.472 70.4417 7.032 69.183 9.72C67.9243 12.3867 66.2283 15.2453 64.095 18.296C62.6443 20.408 60.095 23.6293 56.447 27.96C52.8203 32.2907 50.079 35.384 48.223 37.24C47.7963 38.328 47.583 39.288 47.583 40.12C47.583 41.4853 48.3403 42.168 49.855 42.168C51.3697 42.168 53.2043 41.3253 55.359 39.64C57.535 37.9333 59.0603 36.408 59.935 35.064C60.0203 34.936 60.1057 34.872 60.191 34.872C60.2763 34.872 60.319 34.904 60.319 34.968C60.319 35.032 60.2977 35.1067 60.255 35.192C59.103 36.728 57.951 37.9973 56.799 39C55.6683 40.0027 54.3137 40.9627 52.735 41.88C51.1777 42.7973 49.8443 43.256 48.735 43.256C47.647 43.256 46.8257 43.0107 46.271 42.52C45.7377 42.008 45.471 41.336 45.471 40.504C45.471 40.12 45.5137 39.7573 45.599 39.416C42.719 41.8053 40.2017 43 38.047 43C36.255 43 35.359 41.912 35.359 39.736C35.359 38.1573 35.9137 36.472 37.023 34.68C38.1537 32.8667 39.5937 31.3413 41.343 30.104C43.1137 28.8453 44.767 28.216 46.303 28.216C47.839 28.216 48.991 28.7707 49.759 29.88ZM69.5875 30.2L69.3955 30.136C69.3955 30.584 69.5662 31.0107 69.9075 31.416C70.2702 31.8 70.6968 32.056 71.1875 32.184C71.2302 31.9067 71.2515 31.5547 71.2515 31.128C71.2515 31.0213 71.2515 30.904 71.2515 30.776C71.2515 30.1787 71.0702 29.5493 70.7075 28.888C70.3448 28.2267 70.0568 27.896 69.8435 27.896C69.5448 27.896 69.3955 28.3227 69.3955 29.176C69.5235 29.2187 69.6515 29.304 69.7795 29.432C69.9075 29.56 69.9715 29.6773 69.9715 29.784C69.9715 29.8907 69.9182 29.9867 69.8115 30.072C69.7048 30.1573 69.6302 30.2 69.5875 30.2ZM71.0595 32.76C70.2062 32.7173 69.4382 32.3867 68.7555 31.768C68.0942 31.1493 67.7315 30.4133 67.6675 29.56C66.4088 29.56 65.1288 30.1467 63.8275 31.32C62.5475 32.4933 61.5128 33.9227 60.7235 35.608C59.9342 37.2933 59.5395 38.8827 59.5395 40.376C59.5395 40.952 59.7102 41.496 60.0515 42.008C60.4142 42.4987 60.9262 42.744 61.5875 42.744C63.5075 42.744 65.4382 41.6773 67.3795 39.544C69.3422 37.4107 70.5688 35.1493 71.0595 32.76ZM76.7235 29.88C76.7875 29.88 76.8195 29.9227 76.8195 30.008C76.8195 30.0933 76.7448 30.1787 76.5955 30.264C76.4675 30.3493 76.2008 30.5413 75.7955 30.84C75.4115 31.1173 75.0915 31.3413 74.8355 31.512C74.6008 31.6613 74.2915 31.8427 73.9075 32.056C73.1608 32.4613 72.4248 32.696 71.6995 32.76C71.1662 35.4907 69.8008 37.976 67.6035 40.216C65.4275 42.456 63.1448 43.576 60.7555 43.576C58.3662 43.576 57.1715 42.488 57.1715 40.312C57.1715 38.5627 57.6835 36.792 58.7075 35C59.7528 33.208 61.0968 31.736 62.7395 30.584C64.3822 29.432 66.0248 28.856 67.6675 28.856C67.7102 28.3227 67.8702 27.8 68.1475 27.288C68.4248 26.7547 68.8195 26.488 69.3315 26.488C70.1208 26.488 70.7395 26.8827 71.1875 27.672C71.6568 28.4613 71.8915 29.4747 71.8915 30.712C71.8915 31.0533 71.8488 31.5653 71.7635 32.248C72.7235 32.248 74.2595 31.5227 76.3715 30.072C76.5635 29.944 76.6808 29.88 76.7235 29.88ZM76.2478 30.456C76.2051 30.456 76.1838 30.4133 76.1838 30.328C76.1838 30.2427 76.2371 30.1573 76.3438 30.072C76.6638 29.8587 76.9838 29.6347 77.3038 29.4C77.6451 29.1653 78.9784 28.856 81.3038 28.472L86.4878 18.872C86.7438 18.3387 87.1064 17.8587 87.5758 17.432C88.0024 16.984 88.4291 16.76 88.8558 16.76C88.8771 16.76 88.9091 16.76 88.9518 16.76C89.3144 16.76 89.4958 16.8453 89.4958 17.016C89.4958 17.1867 88.9624 18.1787 87.8958 19.992C86.8291 21.8053 85.3571 24.5253 83.4798 28.152L89.4958 27.192C89.6238 27.192 89.6878 27.2133 89.6878 27.256C89.6878 27.384 89.5278 27.544 89.2078 27.736C88.9091 27.928 88.6744 28.024 88.5037 28.024C88.3331 28.024 86.5304 28.3013 83.0958 28.856L80.0238 35.256C78.8718 37.816 78.2958 39.48 78.2958 40.248C78.2958 41.016 78.5198 41.6453 78.9678 42.136C79.4158 42.6267 79.9811 42.872 80.6638 42.872C82.3278 42.872 83.6931 42.5733 84.7598 41.976C85.8478 41.3787 86.9784 40.5573 88.1518 39.512C89.3464 38.4667 90.3064 37.5387 91.0318 36.728C91.7784 35.896 92.2158 35.384 92.3438 35.192C92.4931 34.9787 92.6104 34.872 92.6958 34.872C92.7811 34.872 92.8238 34.904 92.8238 34.968C92.8238 35.032 92.8024 35.1067 92.7598 35.192C91.7358 36.536 90.6691 37.7413 89.5598 38.808C88.4504 39.8533 87.4798 40.6853 86.6478 41.304C85.8371 41.9227 84.8131 42.456 83.5758 42.904C82.3598 43.352 81.1224 43.576 79.8638 43.576C78.6264 43.576 77.6451 43.2987 76.9198 42.744C76.2158 42.1893 75.8638 41.3147 75.8638 40.12C75.8638 38.9253 76.4824 37.24 77.7198 35.064L80.7917 29.368C78.1038 29.9013 76.6851 30.2213 76.5358 30.328C76.4078 30.4133 76.3118 30.456 76.2478 30.456Z" fill="#45124A" fill-opacity="0.44"/>
</svg>
