<svg width="34" height="30" viewBox="0 0 34 30" fill="none" xmlns="http://www.w3.org/2000/svg">
<g clip-path="url(#clip0_1475_13794)">
<path fill-rule="evenodd" clip-rule="evenodd" d="M14.9855 24.5172C21.8114 24.5172 27.345 19.5152 27.345 13.3448C27.345 7.17449 21.8114 2.17241 14.9855 2.17241C8.15948 2.17241 2.62591 7.17449 2.62591 13.3448C2.62591 19.5152 8.15948 24.5172 14.9855 24.5172ZM14.9855 25.7586C22.5699 25.7586 28.7183 20.2008 28.7183 13.3448C28.7183 6.48887 22.5699 0.93103 14.9855 0.93103C7.40102 0.93103 1.25262 6.48887 1.25262 13.3448C1.25262 20.2008 7.40102 25.7586 14.9855 25.7586Z" fill="#AE709F"/>
<path fill-rule="evenodd" clip-rule="evenodd" d="M8.90793 9.6207C9.45415 9.61977 9.98451 9.78481 10.415 10.0889C10.8457 10.393 11.1516 10.8188 11.2851 11.2981L11.2856 11.2999L12.1668 14.504C12.2562 14.8313 12.2626 15.1727 12.1853 15.5025C12.108 15.8323 11.9491 16.142 11.7203 16.4081C11.4916 16.6742 11.1988 16.8897 10.8642 17.038C10.5296 17.1863 10.1621 17.2634 9.78957 17.2633C9.78951 17.2633 9.78971 17.2633 9.78957 17.2633H9.09765L8.01337 22.7641C7.94683 23.1015 7.59026 23.3264 7.21687 23.2663C6.84354 23.2061 6.59484 22.8838 6.66137 22.5463L7.84652 16.5337C7.90495 16.2376 8.18977 16.0219 8.52252 16.0219H9.78957C9.95224 16.0219 10.1132 15.9883 10.2597 15.9234C10.4062 15.8584 10.5351 15.7638 10.636 15.6464C10.737 15.5289 10.8075 15.3917 10.8418 15.2453C10.8761 15.099 10.8733 14.9475 10.8337 14.8023C10.8337 14.8022 10.8338 14.8025 10.8337 14.8023L9.95334 11.6012C9.95327 11.6009 9.9532 11.6006 9.95313 11.6004C9.89381 11.3881 9.75847 11.2005 9.56951 11.067C9.38047 10.9335 9.14839 10.8616 8.91012 10.8621H8.90861H2.62591C2.24669 10.8621 1.93927 10.5842 1.93927 10.2414C1.93927 9.89858 2.24669 9.6207 2.62591 9.6207H8.90793Z" fill="#AE709F"/>
<path fill-rule="evenodd" clip-rule="evenodd" d="M21.6228 13.3449C21.1954 13.3442 20.7813 13.4748 20.4463 13.7141C20.1112 13.9534 19.8747 14.2872 19.7716 14.6613L19.7711 14.6631L19.161 16.9063C19.0919 17.1617 19.0871 17.4282 19.1467 17.6856C19.2063 17.943 19.3292 18.1852 19.5065 18.3939C19.6839 18.6025 19.9115 18.7722 20.1726 18.8892C20.4336 19.0061 20.7208 19.0671 21.0123 19.0671C21.0124 19.0671 21.0122 19.0671 21.0123 19.0671H21.3132L22.0338 22.7629C22.0996 23.1005 22.4556 23.326 22.8291 23.2665C23.2026 23.207 23.452 22.885 23.3862 22.5474L22.5656 18.3387C22.5078 18.042 22.2227 17.8257 21.8894 17.8257H21.0123C20.9332 17.8257 20.8545 17.8092 20.7825 17.7769C20.7104 17.7446 20.6462 17.6972 20.5953 17.6374C20.5444 17.5775 20.5084 17.507 20.4908 17.431C20.4732 17.3552 20.4747 17.2765 20.4949 17.2014C20.4949 17.2013 20.4949 17.2015 20.4949 17.2014L21.1042 14.9613C21.1043 14.9611 21.1043 14.9608 21.1044 14.9606C21.1349 14.8506 21.2038 14.7552 21.2976 14.6881C21.3914 14.6212 21.5051 14.586 21.6206 14.5862H21.6221H27.345C27.7242 14.5862 28.0317 14.3083 28.0317 13.9655C28.0317 13.6227 27.7242 13.3449 27.345 13.3449H21.6228Z" fill="#AE709F"/>
<path fill-rule="evenodd" clip-rule="evenodd" d="M19.0637 9.62086C18.7136 9.62135 18.3732 9.51633 18.0965 9.32224C17.8397 9.14218 17.6515 8.89502 17.5568 8.61515L15.7645 5.19826C15.745 5.16102 15.7296 5.12216 15.7186 5.08219C15.6609 4.87252 15.6568 4.6537 15.7067 4.44238C15.7565 4.23106 15.8591 4.0328 16.0063 3.86265C16.1536 3.6925 16.3419 3.55494 16.5567 3.46038C16.7715 3.36586 17.0073 3.31677 17.2462 3.31682C17.2463 3.31682 17.2461 3.31682 17.2462 3.31682H17.376L17.8242 1.99116C17.9351 1.66334 18.3189 1.4788 18.6816 1.579C19.0442 1.6792 19.2484 2.02617 19.1376 2.354L18.5408 4.11893C18.4526 4.37993 18.1861 4.5582 17.8842 4.5582H17.2462C17.2157 4.55819 17.1853 4.56446 17.1579 4.57652C17.1305 4.58858 17.1065 4.6061 17.0878 4.62773C17.0691 4.64936 17.0561 4.67452 17.0498 4.70133C17.0465 4.71499 17.0451 4.72883 17.0454 4.74273L18.8222 8.13015C18.8413 8.16652 18.8564 8.20444 18.8674 8.24349C18.8782 8.28234 18.9032 8.31685 18.9384 8.34149C18.9735 8.3662 19.0169 8.37954 19.0615 8.37948H19.0631H26.6583C27.0376 8.37948 27.345 8.65736 27.345 9.00017C27.345 9.34298 27.0376 9.62086 26.6583 9.62086H19.0637Z" fill="#AE709F"/>
</g>
<defs>
<clipPath id="clip0_1475_13794">
<rect width="32.9588" height="29.7931" fill="white" transform="translate(0.337097 0.103455)"/>
</clipPath>
</defs>
</svg>
