<svg width="33" height="30" viewBox="0 0 33 30" fill="none" xmlns="http://www.w3.org/2000/svg">
<path fill-rule="evenodd" clip-rule="evenodd" d="M14.6484 24.4138C21.4743 24.4138 27.0079 19.4117 27.0079 13.2414C27.0079 7.07105 21.4743 2.06897 14.6484 2.06897C7.82239 2.06897 2.28881 7.07105 2.28881 13.2414C2.28881 19.4117 7.82239 24.4138 14.6484 24.4138ZM14.6484 25.6552C22.2328 25.6552 28.3812 20.0973 28.3812 13.2414C28.3812 6.38543 22.2328 0.827591 14.6484 0.827591C7.06392 0.827591 0.915527 6.38543 0.915527 13.2414C0.915527 20.0973 7.06392 25.6552 14.6484 25.6552Z" fill="#4C4C4C"/>
<path fill-rule="evenodd" clip-rule="evenodd" d="M8.57083 9.51725C9.11705 9.51632 9.64742 9.68136 10.0779 9.98543C10.5086 10.2896 10.8145 10.7153 10.948 11.1946L10.9485 11.1964L11.8297 14.4006C11.9191 14.7279 11.9255 15.0693 11.8482 15.399C11.7709 15.7289 11.612 16.0386 11.3832 16.3046C11.1545 16.5708 10.8617 16.7863 10.5271 16.9346C10.1925 17.0828 9.82505 17.1599 9.45248 17.1598C9.45241 17.1598 9.45261 17.1598 9.45248 17.1598H8.76055L7.67627 22.6606C7.60974 22.9981 7.25316 23.2229 6.87977 23.1628C6.50644 23.1027 6.25774 22.7803 6.32428 22.4429L7.50942 16.4302C7.56785 16.1341 7.85267 15.9184 8.18542 15.9184H9.45248C9.61514 15.9185 9.77609 15.8848 9.92262 15.8199C10.0692 15.755 10.198 15.6603 10.2989 15.5429C10.3999 15.4254 10.4704 15.2883 10.5047 15.1418C10.539 14.9955 10.5362 14.844 10.4966 14.6988C10.4966 14.6987 10.4967 14.699 10.4966 14.6988L9.61624 11.4977C9.61617 11.4975 9.61611 11.4972 9.61604 11.4969C9.55671 11.2846 9.42137 11.097 9.23241 10.9636C9.04338 10.8301 8.81129 10.7581 8.57303 10.7586H8.57152H2.28881C1.9096 10.7586 1.60217 10.4807 1.60217 10.1379C1.60217 9.79513 1.9096 9.51725 2.28881 9.51725H8.57083Z" fill="#4C4C4C"/>
<path fill-rule="evenodd" clip-rule="evenodd" d="M21.2857 13.2414C20.8583 13.2407 20.4442 13.3714 20.1092 13.6106C19.7741 13.8499 19.5376 14.1837 19.4345 14.5578L19.434 14.5596L18.8239 16.8028C18.7548 17.0583 18.75 17.3247 18.8096 17.5821C18.8692 17.8395 18.9921 18.0818 19.1694 18.2904C19.3469 18.4991 19.5744 18.6687 19.8355 18.7857C20.0965 18.9026 20.3837 18.9636 20.6752 18.9636C20.6751 18.9636 20.6753 18.9636 20.6752 18.9636H20.9761L21.6967 22.6595C21.7625 22.9971 22.1185 23.2225 22.492 23.163C22.8655 23.1035 23.1149 22.7816 23.0491 22.444L22.2286 18.2352C22.1707 17.9385 21.8856 17.7222 21.5523 17.7222H20.6752C20.5961 17.7223 20.5174 17.7058 20.4454 17.6735C20.3733 17.6411 20.3091 17.5937 20.2582 17.5339C20.2074 17.4741 20.1713 17.4035 20.1537 17.3276C20.1361 17.2517 20.1376 17.1731 20.1578 17.0979C20.1578 17.098 20.1578 17.0978 20.1578 17.0979L20.7671 14.8578C20.7672 14.8576 20.7672 14.8573 20.7673 14.8571C20.7978 14.7471 20.8667 14.6517 20.9605 14.5847C21.0543 14.5177 21.168 14.4825 21.2835 14.4828H21.285H27.0079C27.3872 14.4828 27.6946 14.2049 27.6946 13.8621C27.6946 13.5193 27.3872 13.2414 27.0079 13.2414H21.2857Z" fill="#4C4C4C"/>
<path fill-rule="evenodd" clip-rule="evenodd" d="M18.7266 9.5174C18.3765 9.5179 18.0361 9.41288 17.7594 9.21879C17.5026 9.03873 17.3144 8.79157 17.2197 8.5117L15.4274 5.0948C15.4079 5.05756 15.3925 5.01871 15.3815 4.97873C15.3238 4.76907 15.3197 4.55025 15.3696 4.33892C15.4194 4.1276 15.522 3.92934 15.6692 3.7592C15.8165 3.58905 16.0048 3.45149 16.2197 3.35693C16.4344 3.2624 16.6702 3.21331 16.9091 3.21337C16.909 3.21337 16.9092 3.21337 16.9091 3.21337H17.039L17.4871 1.88771C17.598 1.55988 17.9818 1.37535 18.3445 1.47554C18.7071 1.57574 18.9113 1.92272 18.8005 2.25055L18.2037 4.01547C18.1155 4.27647 17.849 4.45475 17.5471 4.45475H16.9091C16.8786 4.45474 16.8482 4.461 16.8208 4.47306C16.7934 4.48512 16.7694 4.50265 16.7507 4.52427C16.732 4.5459 16.719 4.57106 16.7127 4.59788C16.7094 4.61153 16.708 4.62538 16.7083 4.63928L18.4851 8.02669C18.5042 8.06307 18.5193 8.10099 18.5303 8.14003C18.5411 8.17889 18.5661 8.2134 18.6013 8.23804C18.6364 8.26274 18.6798 8.27609 18.7245 8.27602H18.726H26.3213C26.7005 8.27602 27.0079 8.55391 27.0079 8.89671C27.0079 9.23952 26.7005 9.5174 26.3213 9.5174H18.7266Z" fill="#4C4C4C"/>
</svg>
