<svg width="401" height="455" viewBox="0 0 401 455" fill="none" xmlns="http://www.w3.org/2000/svg">
<path d="M108.326 117.416C105.068 114.57 98.9201 116.277 93.6943 121.147C90.0056 114.823 84.6569 111.408 80.7223 113.178C76.7876 114.949 75.4349 123.424 78.8778 131.518C79.7741 134.235 81.3008 136.685 83.3255 138.658C85.3502 140.631 87.812 142.066 90.4975 142.839C93.2884 142.928 96.0572 142.304 98.5569 141.024C101.056 139.744 103.209 137.847 104.822 135.503C110.478 128.862 112.138 120.704 108.326 117.416Z" fill="#FFC5D2"/>
<path d="M117.119 63.4716C114.168 62.7127 110.971 65.8748 109.127 70.7444C104.885 68.025 100.335 67.6456 98.4909 70.112C96.6465 72.5784 98.4909 78.3334 103.163 82.1911C104.436 83.8302 106.173 85.0216 108.134 85.6006C110.094 86.1796 112.181 86.1175 114.105 85.4229C116.029 84.7282 117.696 83.4355 118.875 81.7235C120.054 80.0115 120.687 77.9649 120.685 75.867C122.099 69.859 120.5 64.2938 117.119 63.4716Z" fill="#FFC5D2"/>
<path d="M266.943 61.7008C269.464 69.606 283.666 113.812 257.844 135.567C240.446 150.302 210.136 150.682 199.869 137.211C188.618 122.286 210.997 102.618 206.693 61.7008C203.62 31.914 183.454 15.5344 190.524 7.06005C195.873 0.735891 210.628 5.35253 215.977 7.06005C228.005 11.4874 238.868 18.7272 247.713 28.2091C256.557 37.691 263.14 49.156 266.943 61.7008Z" fill="#9A3F91"/>
<path d="M217.269 117.038C223.417 138.351 244.812 207.917 207.186 260.028C176.447 302.463 121.115 313.34 114.967 304.74C113.184 302.273 112.754 294.874 106.668 291.332C104.208 289.878 103.471 290.637 101.565 289.056C97.1384 285.388 99.782 279.886 95.7859 274.194C93.1423 270.399 91.2363 271.727 87.855 267.87C84.364 263.598 82.545 258.142 82.7523 252.565C83.1212 242.194 92.4045 239.095 98.6754 229.482C111.832 209.434 92.5275 191.537 104.823 169.845C113.553 154.161 126.464 159.727 132.305 144.549C138.883 127.537 126.157 112.169 135.932 98.6984C139.252 94.2715 141.342 94.9672 146.076 90.8565C165.872 73.6548 154.437 37.9865 162.368 34.6347C170.299 31.2829 202.022 66.6349 217.269 117.038Z" fill="#9A3F91"/>
<path d="M116.687 308.407C114.159 308.551 111.667 307.742 109.678 306.13C107.518 303.818 105.825 301.088 104.699 298.098C104.033 296.137 102.964 294.346 101.563 292.849C100.864 292.46 100.121 292.162 99.35 291.964C98.2437 291.745 97.2081 291.245 96.3373 290.509C95.2205 289.488 94.3175 288.244 93.6833 286.852C93.0491 285.46 92.697 283.95 92.6486 282.414C92.4302 279.866 91.607 277.412 90.251 275.268C89.4427 274.072 88.3092 273.148 86.9926 272.612C85.2358 271.769 83.6664 270.563 82.3816 269.07C78.6262 264.509 76.6733 258.663 76.9099 252.691C77.2353 249.618 78.1865 246.65 79.7013 243.98C81.216 241.311 83.2605 238.999 85.7015 237.197C88.467 234.694 90.9424 231.872 93.079 228.785C99.2269 219.109 97.8743 209.813 96.1529 200.137C93.1587 189.875 94.1276 178.821 98.858 169.275C102.298 163.142 107.68 158.41 114.105 155.868C116.869 154.958 119.404 153.432 121.53 151.399C123.655 149.365 125.318 146.875 126.401 144.105C128.58 137.036 128.814 129.484 127.077 122.287C125.786 114.128 124.495 105.654 130.213 97.9385C130.982 96.8867 131.87 95.9316 132.856 95.0927C135.341 92.9544 138.066 91.1286 140.971 89.6539C143 88.642 148.349 81.6222 161.321 45.3848L164.211 46.4599C150.439 84.8475 145.091 91.1084 142.201 92.4365C139.556 93.8502 137.062 95.546 134.762 97.4958C133.96 98.145 133.256 98.9122 132.672 99.7725C127.753 106.413 128.86 113.496 130.09 121.717C131.976 129.485 131.677 137.644 129.229 145.243C128.016 148.361 126.163 151.173 123.797 153.487C121.431 155.801 118.607 157.562 115.519 158.65C109.671 160.94 104.766 165.227 101.625 170.793C96.0301 180.785 97.6285 189.765 99.2884 199.505C100.948 209.244 102.793 219.742 95.7841 230.493C93.3903 233.847 90.6257 236.903 87.5459 239.6C85.4006 241.129 83.5955 243.109 82.2495 245.41C80.9036 247.71 80.0475 250.278 79.738 252.944C79.5748 258.092 81.2351 263.126 84.4103 267.11C85.4305 268.3 86.6889 269.249 88.0991 269.892C89.86 270.669 91.3727 271.941 92.4641 273.56C94.1486 276.073 95.1659 278.994 95.4152 282.035C95.4184 283.212 95.6484 284.377 96.0916 285.463C96.5347 286.548 97.1825 287.532 97.9974 288.359C98.5319 288.806 99.1654 289.11 99.8417 289.244C100.896 289.498 101.91 289.902 102.854 290.446C104.926 292.17 106.464 294.477 107.281 297.086C108.209 299.669 109.63 302.034 111.461 304.043C113.921 306.193 118.532 306.13 125.294 304.043L126.278 307.015C123.175 308.008 119.936 308.478 116.687 308.407Z" fill="#9A3F91"/>
<path d="M294.732 278.684L324.426 268.249C327.362 242.146 327.61 215.797 325.164 189.64C324.016 177.54 322.438 166.241 320.43 155.742C315.573 136.77 301.187 127.979 293.564 130.446C285.94 132.912 281.883 145.75 284.956 160.612L294.732 278.684Z" fill="#E8987C"/>
<path d="M298.114 341.355C306.291 357.481 286.433 392.454 280.654 402.193C265.157 410.498 247.897 414.714 230.425 414.462C184.684 413.577 155.728 381.007 150.502 374.62C154.31 370.782 157.523 366.367 160.031 361.529C166.733 348.121 171.282 324.343 172.942 320.485L175.34 315.173C182.902 297.465 178.414 280.39 175.34 256.484C174.356 248.453 173.557 239.915 172.819 231.188C171.282 212.784 170.114 194.191 167.839 179.393V178.444C167.291 174.592 166.552 170.772 165.626 166.998C165.319 165.353 165.073 163.772 164.888 162.191C164.704 160.61 164.888 160.8 164.888 160.104C164.305 155.025 164.492 149.883 165.442 144.863C165.98 143.756 166.64 142.716 167.409 141.764C174.909 131.962 188.988 132.91 200.792 124.562L202.698 123.171L203.19 122.728C211.018 121.908 218.908 121.908 226.736 122.728C254.218 124.879 254.095 134.112 273.092 131.645C284.281 130.254 290.798 129.179 298.052 133.606C300.45 134.997 308.012 139.234 311.393 155.741C311.363 155.908 311.363 156.079 311.393 156.246C303.77 177.622 298.052 195.709 294.056 209.18C291.966 216.178 290.122 222.692 288.523 228.721C284.22 244.089 281.391 256.548 279.609 266.666C274.383 295.188 277.272 305.117 280.346 311.884C283.37 317.96 287.107 323.631 291.474 328.77C293.957 332.808 296.175 337.012 298.114 341.355Z" fill="#E8987C"/>
<path d="M204.357 204.5C204.353 210.254 202.603 215.863 199.352 220.545C196.101 225.227 191.51 228.749 186.22 230.619C183.41 231.609 180.461 232.121 177.49 232.136C175.839 232.131 174.191 231.962 172.572 231.631C166.946 230.557 161.8 227.663 157.884 223.372C153.968 219.08 151.486 213.615 150.8 207.771C150.114 201.928 151.26 196.012 154.07 190.885C156.88 185.758 161.208 181.687 166.424 179.267L167.346 178.887C171.421 177.202 175.836 176.57 180.203 177.047C184.571 177.524 188.758 179.095 192.398 181.623C196.039 184.15 199.021 187.557 201.084 191.546C203.148 195.534 204.229 199.982 204.234 204.5H204.357Z" fill="#E8987C"/>
<path d="M226.183 193.18C226.183 197.556 227.448 201.833 229.817 205.468C232.185 209.103 235.551 211.932 239.486 213.595C243.421 215.257 247.748 215.679 251.916 214.807C256.085 213.935 259.907 211.807 262.898 208.695C265.889 205.583 267.913 201.627 268.713 197.329C269.513 193.031 269.052 188.585 267.391 184.557C265.729 180.529 262.94 177.1 259.38 174.705C255.819 172.31 251.647 171.059 247.393 171.109C241.74 171.159 236.336 173.508 232.362 177.644C228.388 181.78 226.166 187.365 226.183 193.18Z" fill="#E8987C"/>
<path d="M310.777 155.995C245.548 158.525 220.28 150.809 175.092 160.169C173.31 160.549 169.498 161.371 164.518 162.636C162.603 158.245 162.212 153.311 163.411 148.659C163.717 147.486 164.172 146.359 164.764 145.307C165.3 144.214 165.939 143.176 166.67 142.208C174.232 132.406 188.31 133.355 200.053 125.007L201.959 123.615L202.512 123.173C204.236 121.631 205.655 119.763 206.693 117.671C210.146 109.88 210.52 101.013 207.738 92.9433C206.416 89.2036 204.459 85.7347 201.959 82.6981L217.206 73.2119L233.498 59.8047C235.711 65.8126 238.969 74.287 243.273 84.4057C252.372 105.781 257.229 116.406 262.946 121.023C279.423 134.303 299.096 123.679 308.072 136.58C311.436 142.428 312.409 149.41 310.777 155.995Z" fill="#E8987C"/>
<path d="M228.579 130.635C228.099 131.624 227.314 132.421 226.346 132.902C225.378 133.382 224.282 133.519 223.231 133.291C222.274 132.901 221.42 132.286 220.737 131.495C220.054 130.704 219.56 129.76 219.296 128.737L228.579 130.635Z" fill="#EA522F"/>
<path d="M217.269 137.148C216.447 137.79 215.561 138.341 214.626 138.792C211.702 140.161 208.442 140.58 205.281 139.994C199.078 139.165 192.922 138.004 186.837 136.516L204.42 137.464L217.269 137.148Z" fill="#EA522F"/>
<path d="M228.58 137.148C229.898 137.783 231.253 138.332 232.638 138.792C237.245 140.173 242.075 140.582 246.839 139.994C259.135 138.919 270.693 137.148 274.567 136.516L247.884 137.464L228.58 137.148Z" fill="#EA522F"/>
<path d="M196.18 367.283C234.209 367.283 265.037 335.571 265.037 296.453C265.037 257.334 234.209 225.622 196.18 225.622C158.152 225.622 127.323 257.334 127.323 296.453C127.323 335.571 158.152 367.283 196.18 367.283Z" fill="#E8987C"/>
<path d="M224.093 109.701C223.024 113.033 220.717 115.793 217.676 117.381C214.635 118.969 211.107 119.255 207.862 118.176L206.694 117.67C210.147 109.879 210.522 101.012 207.739 92.9423C210.65 91.5305 213.983 91.3488 217.023 92.4364C220.18 93.7686 222.697 96.3327 224.022 99.568C225.346 102.803 225.372 106.447 224.093 109.701Z" fill="#EA522F"/>
<path d="M239.216 76.688C235.57 88.424 228.771 98.8599 219.604 106.791C218.188 107.949 216.614 108.887 214.932 109.574C213.221 110.304 211.422 110.793 209.583 111.028C201.714 112.103 189.726 103.123 188.68 102.364C183.291 98.9247 178.813 94.1665 175.647 88.5142C173.249 83.5814 173.679 80.9884 170.052 72.9568C168.085 68.7196 166.855 66.6326 165.318 64.1029V63.7235C164.765 62.7116 164.15 61.5733 163.535 60.3084C162.868 59.103 162.273 57.857 161.752 56.5772C157.779 49.0154 156.642 40.2168 158.555 31.8497C161.01 25.1157 165.274 19.2378 170.851 14.901C172.675 13.4517 174.584 12.1211 176.569 10.9168L178.782 9.65194C184.521 6.65095 190.791 4.87431 197.214 4.42873C203.638 3.98315 210.083 4.87783 216.162 7.05903C240.753 18.2528 245.241 55.1227 239.216 76.688Z" fill="#E8987C"/>
<path d="M218.19 55.7558C216.43 58.826 213.726 61.2066 210.505 62.5226C208.784 63.2183 204.849 64.7993 202.574 62.5226C202.034 62.0009 201.615 61.3602 201.348 60.6483C201.082 59.9365 200.976 59.1719 201.037 58.4119C201.181 57.0575 201.792 55.8009 202.759 54.8704C204.28 53.2778 206.24 52.2051 208.374 51.7978C210.507 51.3905 212.711 51.6684 214.686 52.5937C216.078 53.3517 217.278 54.4346 218.19 55.7558Z" fill="#EA522F"/>
<path d="M205.156 64.926C204.174 65.02 203.186 65.02 202.205 64.926C201.988 64.9164 201.776 64.8595 201.581 64.7592C201.387 64.6589 201.216 64.5174 201.079 64.3441C200.942 64.1708 200.842 63.9696 200.786 63.7537C200.73 63.5378 200.719 63.3122 200.754 63.0917C200.789 62.8712 200.87 62.6608 200.989 62.4745C201.109 62.2881 201.266 62.13 201.449 62.0105C201.633 61.891 201.839 61.8129 202.054 61.7813C202.269 61.7497 202.488 61.7653 202.697 61.8272C204.869 62.2093 207.097 62.0795 209.214 61.4477C213.045 60.2931 216.328 57.7263 218.436 54.2382C218.547 54.0622 218.692 53.9109 218.861 53.7931C219.03 53.6753 219.221 53.5934 219.421 53.5522C219.621 53.511 219.828 53.5113 220.028 53.553C220.228 53.5948 220.418 53.6772 220.587 53.7955C220.756 53.9044 220.902 54.0474 221.016 54.2159C221.13 54.3844 221.209 54.5749 221.249 54.7759C221.29 54.9769 221.29 55.1842 221.25 55.3853C221.21 55.5863 221.131 55.777 221.018 55.9457C218.496 60.0877 214.578 63.1275 210.013 64.4833C208.425 64.8807 206.787 65.0299 205.156 64.926Z" fill="#731275"/>
<path d="M171.712 76.1819C174.526 76.8371 177.461 76.6839 180.196 75.7392C181.61 75.2333 186.344 73.6522 186.344 70.6799C186.311 69.914 186.105 69.1666 185.742 68.4969C185.379 67.8273 184.87 67.2539 184.254 66.8222C183.576 66.3309 182.798 66.0063 181.979 65.8735C178.352 65.1779 171.159 66.8854 170.359 71.3755C170.255 72.2292 170.321 73.0957 170.554 73.9222C170.787 74.7486 171.181 75.5175 171.712 76.1819Z" fill="#EA522F"/>
<path d="M174.11 78.5216C172.026 78.5168 169.955 78.1972 167.962 77.573C167.57 77.4472 167.244 77.1666 167.053 76.793C166.863 76.4194 166.825 75.9834 166.947 75.5809C167.07 75.1783 167.342 74.8422 167.706 74.6466C168.069 74.4509 168.493 74.4116 168.884 74.5374C172.693 75.825 176.83 75.6223 180.503 73.9682C182.491 73.0195 184.269 71.6638 185.729 69.984C185.867 69.8328 186.034 69.7122 186.219 69.6298C186.404 69.5474 186.603 69.5049 186.805 69.5049C187.007 69.5049 187.206 69.5474 187.391 69.6298C187.576 69.7122 187.743 69.8328 187.881 69.984C188.163 70.2795 188.32 70.6769 188.32 71.0907C188.32 71.5046 188.163 71.9019 187.881 72.1975C186.167 74.2462 184.03 75.8767 181.627 76.9705C179.224 78.0644 176.614 78.5942 173.987 78.5216H174.11Z" fill="#731275"/>
<path d="M219.42 42.4114C214.998 42.8365 210.642 43.8134 206.448 45.3205C202.822 46.658 199.356 48.4192 196.12 50.5696C195.899 49.8714 195.755 49.1503 195.689 48.4194C195.616 46.803 195.867 45.1883 196.427 43.6763C199.931 42.4747 202.882 41.5893 205.096 41.0201C207.651 40.145 210.335 39.7383 213.027 39.8185C215.348 40.0664 217.559 40.9631 219.42 42.4114Z" fill="#731275"/>
<path d="M194.459 44.2462C194.347 45.1701 194.347 46.1048 194.459 47.0288C194.369 48.3621 194.692 49.6905 195.383 50.8233C195.485 49.793 195.485 48.7547 195.383 47.7244C195.23 46.655 195.23 45.5685 195.383 44.4991C195.338 44.2483 195.338 43.9911 195.383 43.7402L194.459 44.2462Z" fill="#731275"/>
<path d="M178.229 59.551C174.436 60.3038 170.742 61.5137 167.224 63.1557L165.318 64.1044V63.7249C164.765 62.713 164.15 61.5747 163.535 60.3099L165.626 59.045C167.593 57.9699 170.236 56.4521 173.618 54.8711C175.054 55.497 176.32 56.4739 177.307 57.717C177.681 58.2901 177.99 58.9054 178.229 59.551Z" fill="#731275"/>
<path d="M175.215 53.8594C175.971 54.3705 176.654 54.9878 177.244 55.6934C178.165 56.6103 178.824 57.7697 179.15 59.0452C179.15 59.0452 177.428 57.4009 176.998 56.8317C176.357 55.979 175.614 55.2139 174.785 54.555L174.17 54.1123L175.215 53.8594Z" fill="#731275"/>
<path d="M196.119 77.0677C194.821 77.0028 193.529 77.2862 192.369 77.8898C191.162 78.4095 190.119 79.2633 189.356 80.3562C190.655 80.3859 191.941 80.1041 193.115 79.5333C194.289 78.9625 195.318 78.1183 196.119 77.0677Z" fill="#EA522F"/>
<path d="M192.614 92.9428C192.415 92.9513 192.217 92.9184 192.031 92.8459C191.844 92.7735 191.674 92.663 191.531 92.5212C191.387 92.3794 191.273 92.2092 191.195 92.0208C191.117 91.8324 191.077 91.6297 191.077 91.425C191.076 91.01 191.227 90.6098 191.501 90.3048C191.775 89.9999 192.15 89.8126 192.553 89.7807C196.349 89.7387 200.08 88.7629 203.435 86.9348C206.379 85.3723 208.991 83.2225 211.119 80.6107C211.249 80.4487 211.408 80.3146 211.587 80.2158C211.767 80.117 211.964 80.0556 212.166 80.035C212.369 80.0145 212.573 80.0352 212.768 80.096C212.963 80.1568 213.144 80.2565 213.302 80.3893C213.459 80.5222 213.59 80.6857 213.686 80.8704C213.782 81.0552 213.842 81.2576 213.862 81.466C213.882 81.6745 213.861 81.885 213.802 82.0855C213.743 82.2859 213.646 82.4725 213.517 82.6344C211.125 85.609 208.177 88.0605 204.848 89.8439C201.042 91.8604 196.834 92.9427 192.553 93.006L192.614 92.9428Z" fill="#EA522F"/>
<path d="M194.15 92.4986C194.826 93.7002 199.314 92.4986 203.187 90.7911C207.061 89.0835 211.487 86.3009 210.995 84.4669C210.995 84.4669 210.134 83.961 208.72 83.5183C202.941 81.874 202.019 81.621 201.159 82.1269C200.531 82.5924 199.85 82.9749 199.13 83.2653H198.33C196.793 83.708 196.609 83.2653 196.056 83.8345C195.355 85.0127 194.895 86.3252 194.703 87.6922C194.523 88.2724 194.379 88.8639 194.273 89.463C194.088 91.4235 193.965 92.1191 194.15 92.4986Z" fill="#EA522F"/>
<path d="M202.636 97.369C202.275 97.3425 201.935 97.1859 201.675 96.9268C201.415 96.6677 201.253 96.3227 201.216 95.9525C201.179 95.5822 201.271 95.2106 201.474 94.9028C201.678 94.5951 201.98 94.3711 202.328 94.2702L204.664 93.5113C206.388 92.7501 207.954 91.6551 209.275 90.2859C209.563 89.9962 209.949 89.834 210.351 89.834C210.754 89.834 211.14 89.9962 211.427 90.2859C211.576 90.4334 211.694 90.6102 211.775 90.8058C211.856 91.0014 211.898 91.2118 211.898 91.4243C211.898 91.6368 211.856 91.8472 211.775 92.0428C211.694 92.2383 211.576 92.4152 211.427 92.5626C209.846 94.2539 207.941 95.589 205.833 96.4836C204.912 96.866 203.967 97.1829 203.005 97.4322L202.636 97.369Z" fill="#EA522F"/>
<path d="M199.993 190.65C198.886 190.65 198.333 189.638 198.517 188.816L199.931 180.595C200.006 180.184 200.236 179.821 200.57 179.584C200.904 179.347 201.315 179.256 201.714 179.33C202.113 179.407 202.466 179.642 202.697 179.986C202.927 180.33 203.016 180.753 202.944 181.164L201.53 189.322C201.471 189.696 201.283 190.036 201.001 190.28C200.719 190.523 200.361 190.655 199.993 190.65Z" fill="#EA522F"/>
<path d="M200.73 181.923C200.469 181.926 200.212 181.857 199.985 181.723C199.758 181.59 199.57 181.397 199.439 181.164L196.365 176.168C196.243 175.994 196.157 175.796 196.112 175.587C196.067 175.377 196.063 175.16 196.102 174.949C196.141 174.738 196.221 174.538 196.338 174.36C196.455 174.182 196.606 174.03 196.781 173.914C196.957 173.798 197.153 173.72 197.359 173.685C197.565 173.649 197.776 173.657 197.978 173.709C198.181 173.76 198.371 173.853 198.538 173.982C198.705 174.111 198.844 174.274 198.947 174.461L202.021 179.52C202.228 179.874 202.293 180.296 202.201 180.698C202.109 181.1 201.868 181.449 201.529 181.67C201.296 181.839 201.016 181.928 200.73 181.923Z" fill="#EA522F"/>
<path d="M201.468 182.681C201.087 182.682 200.718 182.548 200.422 182.302C200.137 181.995 199.978 181.588 199.978 181.163C199.978 180.739 200.137 180.331 200.422 180.025L205.71 173.701C205.848 173.55 206.014 173.429 206.199 173.347C206.384 173.264 206.584 173.222 206.786 173.222C206.987 173.222 207.187 173.264 207.372 173.347C207.557 173.429 207.724 173.55 207.862 173.701C208.01 173.848 208.129 174.025 208.209 174.221C208.29 174.416 208.332 174.627 208.332 174.839C208.332 175.052 208.29 175.262 208.209 175.458C208.129 175.653 208.01 175.83 207.862 175.977L202.513 182.302C202.377 182.441 202.213 182.547 202.032 182.613C201.851 182.678 201.658 182.702 201.468 182.681Z" fill="#EA522F"/>
<path d="M287.907 228.596C283.603 243.964 280.775 256.422 278.992 266.541C257.317 246.641 230.157 234.175 201.283 230.873C196.337 230.408 191.37 230.218 186.404 230.304C181.548 230.304 176.998 230.81 172.756 231.315C166.341 230.817 160.333 227.891 155.894 223.102C151.454 218.313 148.897 212.001 148.718 205.386C148.845 199.895 150.604 194.576 153.759 190.145C156.959 185.309 161.38 181.46 166.547 179.015L167.592 179.521C174.159 182.873 181.094 185.4 188.249 187.046C192.114 187.93 196.04 188.5 199.991 188.754C208.943 189.333 217.928 188.93 226.796 187.552C230.174 187.352 233.527 186.844 236.818 186.034C240.328 184.874 243.645 183.168 246.654 180.975L287.907 228.596Z" fill="#FFC5D2"/>
<path d="M167.47 182.683C167.045 182.773 166.605 182.773 166.179 182.683C165.434 182.325 164.855 181.68 164.568 180.887C164.28 180.095 164.307 179.218 164.642 178.445L186.16 129.496C186.496 128.734 187.111 128.14 187.871 127.844C188.632 127.547 189.476 127.573 190.218 127.915C190.607 128.063 190.963 128.288 191.267 128.579C191.57 128.869 191.815 129.218 191.987 129.606C192.158 129.995 192.253 130.414 192.266 130.84C192.279 131.266 192.21 131.691 192.062 132.089L170.544 181.038C170.259 181.604 169.81 182.066 169.26 182.36C168.71 182.655 168.085 182.767 167.47 182.683Z" fill="#FFC5D2"/>
<path d="M243.396 190.46C242.929 190.555 242.448 190.555 241.982 190.46C241.264 190.058 240.727 189.383 240.486 188.58C240.245 187.776 240.318 186.908 240.691 186.16L271.984 124.752C272.138 124.334 272.376 123.955 272.684 123.639C272.991 123.323 273.359 123.078 273.766 122.919C274.172 122.76 274.606 122.692 275.039 122.718C275.473 122.745 275.896 122.866 276.281 123.073C276.666 123.28 277.004 123.568 277.273 123.919C277.541 124.27 277.735 124.676 277.84 125.11C277.945 125.543 277.959 125.995 277.882 126.435C277.806 126.874 277.639 127.292 277.394 127.661L246.101 189.005C245.822 189.479 245.422 189.864 244.945 190.12C244.468 190.377 243.933 190.494 243.396 190.46Z" fill="#FFC5D2"/>
<path d="M189.909 343.442L196.057 354.193C230.536 346.478 263.299 332.17 292.641 312.011C300.391 306.552 307.86 300.683 315.02 294.429C317.367 293.419 319.486 291.92 321.243 290.027C323 288.134 324.358 285.887 325.23 283.428C326.101 280.968 326.469 278.35 326.31 275.738C326.15 273.125 325.467 270.575 324.303 268.247C322.616 266.315 320.561 264.759 318.266 263.677C315.97 262.595 313.483 262.009 310.959 261.955C308.434 261.902 305.926 262.382 303.59 263.367C301.253 264.351 299.138 265.819 297.375 267.678C290.567 270.624 283.954 274.025 277.579 277.86C245.056 297.592 237.125 318.208 205.095 336.042C200.176 338.808 195.105 341.278 189.909 343.442Z" fill="#E8987C"/>
<path d="M196.858 341.924C196.525 341.9 196.209 341.765 195.957 341.54C195.705 341.315 195.532 341.011 195.462 340.676C195.393 340.34 195.432 339.99 195.572 339.679C195.713 339.368 195.948 339.113 196.243 338.951C199.009 337.623 201.776 336.169 204.481 334.651C218.092 326.91 230.521 317.151 241.368 305.686C252.111 294.496 264.149 284.704 277.211 276.532L278.072 276.026C278.418 275.865 278.811 275.842 279.173 275.961C279.536 276.08 279.842 276.334 280.033 276.672C280.225 277.011 280.287 277.41 280.209 277.793C280.13 278.176 279.916 278.515 279.609 278.745L278.748 279.251C265.908 287.303 254.077 296.946 243.52 307.963C232.577 319.616 220.023 329.547 206.264 337.434C203.497 338.951 200.669 340.469 197.841 341.797L196.858 341.924Z" fill="#EA522F"/>
<path d="M203.064 354.004C202.657 354.054 202.246 353.936 201.924 353.675C201.601 353.414 201.392 353.032 201.343 352.612C201.294 352.193 201.409 351.771 201.663 351.439C201.916 351.107 202.288 350.892 202.696 350.842C231.121 343.73 258.279 332.056 283.172 316.249C283.345 316.133 283.538 316.055 283.741 316.018C283.943 315.98 284.151 315.986 284.352 316.033C284.553 316.08 284.742 316.168 284.909 316.292C285.076 316.416 285.217 316.573 285.324 316.754C285.516 317.112 285.572 317.53 285.481 317.927C285.39 318.325 285.159 318.673 284.832 318.905C259.645 334.886 232.179 346.708 203.433 353.941L203.064 354.004Z" fill="#EA522F"/>
<path d="M195.258 341.545C181.898 331.746 166.951 324.465 151.116 320.043C150.692 320.235 150.31 320.514 149.993 320.861C149.676 321.209 149.431 321.619 149.272 322.067C148.95 322.878 148.95 323.785 149.272 324.596C146.845 322.638 144.765 320.263 143.124 317.577C141.156 314.351 138.697 312.833 137.652 313.403C136.607 313.972 136.545 316.944 138.144 320.359C137.737 320.652 137.383 321.016 137.099 321.434C136.494 322.497 136.136 323.689 136.05 324.917C135.965 326.145 136.156 327.377 136.607 328.517C136.512 329.717 136.512 330.922 136.607 332.122C136.757 337.907 138.743 343.482 142.263 347.996L133.287 344.138C131.135 344.138 130.397 344.138 130.213 344.581C129.352 346.731 142.14 357.229 157.264 359.632C165.524 360.277 173.83 359.529 181.856 357.419C188.512 356.23 195.1 354.668 201.59 352.739C199.562 349.008 197.41 345.276 195.258 341.545Z" fill="#E8987C"/>
<path d="M162.49 361.593C160.639 361.592 158.791 361.466 156.957 361.213C146.287 359.691 136.441 354.47 129.045 346.415C128.821 346.064 128.677 345.665 128.624 345.249C128.57 344.833 128.609 344.41 128.738 344.011C129.476 342.177 132.119 342.43 133.41 342.557H133.84L138.205 344.454C136.128 340.577 135.009 336.233 134.947 331.806C134.856 330.627 134.856 329.443 134.947 328.264C134.441 326.937 134.25 325.505 134.389 324.086C134.528 322.667 134.993 321.303 135.746 320.106L136.177 319.537C134.947 316.312 134.824 312.77 136.792 311.632C138.759 310.493 142.263 313.086 144.292 316.375C145.282 317.934 146.437 319.377 147.735 320.675C148.26 319.546 149.183 318.664 150.317 318.209C150.618 318.116 150.938 318.116 151.239 318.209C163.008 321.497 174.313 326.344 184.868 332.628C188.618 334.841 192.369 337.308 195.935 339.901C196.103 340.02 196.246 340.173 196.354 340.352C196.462 340.53 196.532 340.73 196.561 340.938C196.59 341.146 196.576 341.358 196.521 341.561C196.467 341.763 196.371 341.952 196.242 342.114C196.137 342.291 195.998 342.442 195.832 342.559C195.666 342.675 195.478 342.754 195.28 342.79C195.082 342.826 194.879 342.818 194.685 342.767C194.49 342.716 194.309 342.623 194.152 342.494C190.647 339.964 187.02 337.561 183.331 335.347C173.2 329.298 162.352 324.621 151.055 321.434C150.773 321.624 150.575 321.919 150.501 322.256C150.501 322.636 150.501 323.205 150.501 323.648C150.653 323.956 150.693 324.31 150.614 324.646C150.536 324.982 150.343 325.278 150.071 325.482C149.805 325.713 149.467 325.841 149.118 325.841C148.769 325.841 148.431 325.713 148.165 325.482C145.561 323.419 143.316 320.917 141.525 318.082C140.752 316.63 139.603 315.427 138.205 314.604C138.12 316.247 138.459 317.884 139.189 319.347C139.356 319.679 139.398 320.062 139.308 320.424C139.217 320.786 139 321.1 138.697 321.308L138.021 322.003C137.589 322.886 137.363 323.861 137.363 324.849C137.363 325.838 137.589 326.812 138.021 327.695C138.081 327.923 138.081 328.163 138.021 328.391C137.958 329.507 137.958 330.626 138.021 331.743C138.215 337.187 140.112 342.422 143.431 346.668C143.636 346.951 143.746 347.295 143.746 347.648C143.746 348.001 143.636 348.345 143.431 348.628C143.223 348.913 142.924 349.113 142.587 349.194C142.25 349.275 141.896 349.231 141.587 349.071L132.857 345.34H132.303C139.259 352.023 147.991 356.426 157.387 357.988C165.416 358.65 173.497 357.945 181.303 355.901H181.794C187.659 354.895 193.467 353.565 199.193 351.917C199.391 351.86 199.598 351.844 199.802 351.871C200.005 351.897 200.202 351.966 200.38 352.072C200.557 352.178 200.712 352.32 200.836 352.488C200.96 352.657 201.049 352.85 201.099 353.055C201.154 353.254 201.169 353.463 201.142 353.669C201.115 353.874 201.048 354.072 200.944 354.25C200.841 354.428 200.703 354.582 200.539 354.703C200.375 354.823 200.189 354.908 199.992 354.952C194.213 356.597 188.25 357.988 182.286 359.063H181.794C175.44 360.461 168.982 361.307 162.49 361.593Z" fill="#EA522F"/>
<path d="M167.469 337.814H166.854C163.962 336.627 161.184 335.166 158.554 333.45C155.073 331.279 151.872 328.665 149.025 325.671C148.803 325.367 148.695 324.99 148.722 324.611C148.748 324.231 148.906 323.874 149.168 323.605C149.43 323.336 149.777 323.173 150.146 323.146C150.515 323.119 150.881 323.229 151.177 323.458C153.776 326.165 156.663 328.562 159.784 330.604C162.276 332.244 164.91 333.641 167.653 334.778C167.843 334.848 168.016 334.956 168.163 335.098C168.31 335.239 168.428 335.409 168.508 335.599C168.589 335.788 168.631 335.993 168.632 336.2C168.633 336.407 168.593 336.611 168.514 336.802C168.433 337.045 168.296 337.265 168.113 337.441C167.931 337.617 167.71 337.745 167.469 337.814Z" fill="#EA522F"/>
<path d="M150.195 343.252C149.935 343.248 149.68 343.177 149.454 343.044C149.228 342.911 149.039 342.722 148.904 342.493L136.731 321.813C136.626 321.635 136.556 321.437 136.525 321.231C136.495 321.024 136.504 320.814 136.553 320.611C136.601 320.409 136.688 320.218 136.808 320.05C136.928 319.882 137.08 319.74 137.253 319.632C137.427 319.524 137.619 319.452 137.82 319.42C138.021 319.389 138.225 319.399 138.422 319.448C138.619 319.498 138.804 319.588 138.968 319.711C139.131 319.835 139.269 319.991 139.374 320.169L151.67 341.102C151.872 341.463 151.927 341.892 151.823 342.294C151.72 342.697 151.466 343.041 151.117 343.252C150.821 343.375 150.49 343.375 150.195 343.252Z" fill="#EA522F"/>
<path d="M156.834 344.897H156.465L149.887 343.252C149.688 343.207 149.501 343.123 149.335 343.003C149.168 342.883 149.027 342.73 148.918 342.554C148.81 342.378 148.736 342.181 148.702 341.975C148.667 341.769 148.673 341.559 148.719 341.355C148.761 341.152 148.844 340.961 148.961 340.793C149.079 340.624 149.229 340.482 149.401 340.375C149.574 340.269 149.766 340.2 149.966 340.172C150.166 340.145 150.369 340.16 150.563 340.217L157.203 341.798C157.583 341.916 157.908 342.175 158.113 342.526C158.317 342.877 158.387 343.294 158.309 343.695C158.228 344.035 158.038 344.338 157.771 344.555C157.504 344.773 157.174 344.893 156.834 344.897Z" fill="#EA522F"/>
<path d="M148.042 348.374C147.782 348.37 147.527 348.298 147.302 348.166C147.076 348.033 146.887 347.843 146.751 347.615L135.439 329.401C135.229 329.038 135.162 328.605 135.254 328.193C135.346 327.781 135.588 327.421 135.931 327.188C136.275 326.975 136.686 326.908 137.076 327.003C137.467 327.098 137.806 327.345 138.021 327.694L149.395 345.907C149.605 346.271 149.672 346.703 149.58 347.115C149.489 347.528 149.246 347.888 148.903 348.121C148.651 348.299 148.348 348.387 148.042 348.374Z" fill="#EA522F"/>
<path d="M155.174 350.4H154.744L147.612 348.376C147.218 348.258 146.884 347.988 146.678 347.623C146.472 347.259 146.41 346.826 146.506 346.416C146.62 346.013 146.885 345.674 147.242 345.472C147.599 345.27 148.02 345.223 148.412 345.341L155.605 347.364C155.796 347.415 155.976 347.506 156.132 347.629C156.289 347.753 156.42 347.908 156.518 348.085C156.615 348.262 156.677 348.458 156.7 348.66C156.723 348.862 156.705 349.066 156.65 349.262C156.566 349.595 156.374 349.89 156.106 350.097C155.838 350.304 155.509 350.411 155.174 350.4Z" fill="#EA522F"/>
<path d="M157.325 355.773C154.334 355.36 151.402 354.575 148.595 353.433C146.075 352.41 143.698 351.05 141.525 349.386C141.359 349.266 141.217 349.113 141.109 348.937C141 348.761 140.927 348.564 140.892 348.358C140.858 348.152 140.864 347.942 140.909 347.738C140.954 347.535 141.038 347.342 141.156 347.172C141.272 346.999 141.421 346.852 141.595 346.741C141.768 346.63 141.962 346.558 142.164 346.528C142.367 346.498 142.573 346.512 142.77 346.569C142.967 346.625 143.15 346.723 143.308 346.856C145.32 348.323 147.485 349.553 149.763 350.524C152.257 351.529 154.857 352.23 157.51 352.611C157.716 352.626 157.916 352.685 158.098 352.784C158.281 352.883 158.441 353.021 158.568 353.188C158.696 353.354 158.788 353.547 158.838 353.753C158.889 353.958 158.897 354.173 158.862 354.382C158.817 354.768 158.635 355.123 158.352 355.379C158.068 355.636 157.703 355.776 157.325 355.773Z" fill="#EA522F"/>
<path d="M148.349 244.848C146.611 242.892 145.425 240.485 144.919 237.886C144.414 235.287 144.608 232.596 145.482 230.102C146.355 227.609 147.874 225.408 149.875 223.738C151.875 222.068 154.281 220.992 156.833 220.627L174.539 215.757C176.705 215.266 178.953 215.32 181.094 215.915C183.235 216.509 185.204 217.627 186.835 219.172C187.701 220.144 188.37 221.283 188.803 222.524C194.102 227.417 198.846 232.912 202.943 238.903C203.742 240.295 204.726 242.066 204.049 243.583C203.373 245.101 199.93 245.797 199.315 245.797C199.518 246.455 199.518 247.162 199.315 247.821C198.024 251.046 191.999 252.247 184.376 250.983L162.243 248.39C162.92 248.896 173.31 257.37 171.342 261.797C171.095 262.312 170.732 262.758 170.282 263.099C169.833 263.44 169.311 263.666 168.76 263.757C166.424 263.757 164.641 260.595 161.936 256.991C159.402 253.69 156.468 250.736 153.206 248.2C151.6 247.473 150.141 246.443 148.903 245.164L148.349 244.848Z" fill="#E8987C"/>
<path d="M168.514 264.895C166.055 264.895 164.272 262.492 162.366 259.709L160.768 257.496C158.336 254.301 155.504 251.451 152.345 249.022C150.971 248.391 149.705 247.537 148.595 246.492C148.448 246.35 148.33 246.178 148.25 245.988C148.17 245.798 148.129 245.593 148.129 245.385C148.129 245.178 148.17 244.973 148.25 244.782C148.33 244.592 148.448 244.42 148.595 244.278C148.882 243.989 149.268 243.826 149.671 243.826C150.073 243.826 150.459 243.989 150.746 244.278C151.718 245.18 152.817 245.927 154.005 246.492C157.455 249.121 160.555 252.204 163.227 255.662C163.841 256.421 164.395 257.243 164.887 257.939C166.362 260.026 167.776 261.986 168.76 261.86C169.037 261.808 169.299 261.689 169.524 261.514C169.748 261.338 169.929 261.109 170.051 260.848C170.973 258.761 166.301 253.259 161.444 249.338C161.179 249.128 160.988 248.836 160.9 248.505C160.811 248.174 160.829 247.823 160.952 247.504C161.095 247.194 161.322 246.934 161.605 246.754C161.889 246.574 162.217 246.483 162.551 246.492L184.683 249.148C192.368 250.35 196.979 249.148 198.086 246.935C198.152 246.516 198.152 246.089 198.086 245.67C197.932 245.285 197.932 244.853 198.086 244.468C198.224 244.302 198.393 244.167 198.583 244.069C198.773 243.971 198.98 243.913 199.192 243.899C200.606 243.899 202.205 243.393 202.573 242.571C202.942 241.749 201.959 240.041 201.59 239.409C199.909 236.764 198.017 234.268 195.934 231.946C195.652 231.651 195.494 231.253 195.494 230.84C195.494 230.426 195.652 230.028 195.934 229.733C196.077 229.58 196.249 229.458 196.439 229.375C196.629 229.292 196.834 229.249 197.04 229.249C197.247 229.249 197.451 229.292 197.642 229.375C197.832 229.458 198.004 229.58 198.147 229.733C200.393 232.199 202.449 234.842 204.295 237.638C204.97 238.517 205.43 239.552 205.633 240.653C205.836 241.754 205.778 242.889 205.463 243.962C204.968 244.788 204.294 245.486 203.495 246.002C202.695 246.517 201.791 246.836 200.852 246.935C200.786 247.365 200.683 247.788 200.545 248.199C198.885 252.12 192.552 253.701 183.884 252.31L166.793 250.286C170.235 253.701 174.109 258.571 172.51 262.239C172.152 263 171.617 263.658 170.952 264.155C170.287 264.651 169.513 264.971 168.698 265.085L168.514 264.895Z" fill="#EA522F"/>
<path d="M199.009 247.062L174.97 243.584C174.573 243.521 174.215 243.3 173.973 242.969C173.732 242.638 173.626 242.223 173.679 241.813C173.702 241.607 173.765 241.407 173.865 241.227C173.965 241.047 174.099 240.89 174.261 240.765C174.422 240.641 174.606 240.552 174.802 240.504C174.999 240.455 175.202 240.449 175.401 240.485L199.255 243.9C199.662 243.9 200.053 244.066 200.341 244.363C200.63 244.659 200.792 245.062 200.792 245.481C200.792 245.9 200.63 246.302 200.341 246.599C200.053 246.895 199.662 247.062 199.255 247.062H199.009Z" fill="#EA522F"/>
<path d="M203.927 242.003H203.435L178.229 233.149C178.036 233.094 177.857 232.997 177.703 232.864C177.55 232.732 177.426 232.568 177.339 232.383C177.251 232.197 177.203 231.995 177.198 231.789C177.192 231.584 177.229 231.379 177.306 231.189C177.433 230.798 177.703 230.474 178.059 230.285C178.415 230.096 178.829 230.057 179.212 230.177L204.357 238.968C204.552 239.031 204.732 239.135 204.886 239.273C205.04 239.411 205.164 239.581 205.25 239.771C205.337 239.961 205.384 240.168 205.389 240.378C205.394 240.588 205.357 240.797 205.279 240.991C205.18 241.281 204.997 241.533 204.756 241.713C204.514 241.894 204.225 241.995 203.927 242.003Z" fill="#EA522F"/>
<path d="M196.119 231.693C195.918 231.75 195.706 231.75 195.504 231.693L176.63 222.523C176.261 222.332 175.978 222.002 175.84 221.601C175.703 221.2 175.721 220.76 175.892 220.373C176.077 220.009 176.391 219.732 176.77 219.603C177.149 219.473 177.562 219.5 177.921 219.677L196.795 228.847C196.982 228.929 197.15 229.049 197.289 229.2C197.429 229.351 197.536 229.53 197.606 229.726C197.675 229.921 197.704 230.13 197.692 230.338C197.679 230.546 197.625 230.749 197.533 230.934C197.388 231.182 197.179 231.383 196.929 231.517C196.68 231.651 196.4 231.712 196.119 231.693Z" fill="#EA522F"/>
<path d="M214.932 3.26544C223.532 6.00092 230.942 11.7234 235.896 19.4553C236.265 20.2774 236.572 20.9731 236.818 21.6687C237.97 25.0774 238.673 28.6294 238.909 32.2301C239.339 40.4515 245.057 44.3725 246.594 53.7322C248.315 65.1789 241.921 76.3727 239.831 75.9933C237.74 75.6138 239.831 68.7837 237.249 59.9299C234.731 52.4343 230.162 45.8461 224.092 40.9574L195.689 26.4751C191.631 32.2182 186.832 37.3669 181.425 41.7796C178.228 44.3725 177.491 44.499 173.495 47.7243C162.982 56.1354 161.629 60.3726 159.293 59.7402C154.989 58.6651 153.145 43.1076 157.264 29.8269C159.835 21.1589 164.998 13.546 172.019 8.0718C189.91 -5.65162 211.489 2.00061 214.932 3.26544Z" fill="#9A3F91"/>
<path d="M238.355 47.0916C239.332 48.1612 240.049 49.4533 240.447 50.8623C240.844 52.2713 240.913 53.7572 240.645 55.1984C240.378 56.6397 239.783 57.9954 238.908 59.1547C238.034 60.314 236.905 61.2439 235.615 61.8684C234.324 62.4929 232.908 62.7943 231.482 62.7478C230.056 62.7014 228.662 62.3085 227.412 61.6013C226.162 60.894 225.093 59.8926 224.292 58.6787C223.49 57.4649 222.979 56.0732 222.801 54.6174C221.331 52.2552 220.811 49.3981 221.35 46.6488C221.889 43.8996 223.446 41.4734 225.691 39.8821C229.871 37.7951 235.589 41.0204 238.355 47.0916Z" fill="#E8987C"/>
<path d="M232.637 63.9776C232.168 64.0398 231.693 64.0398 231.223 63.9776C230.826 63.915 230.468 63.6945 230.226 63.3634C229.985 63.0324 229.879 62.6171 229.932 62.2069C229.962 61.9981 230.032 61.7975 230.138 61.6171C230.245 61.4366 230.385 61.2799 230.551 61.1561C230.718 61.0323 230.906 60.944 231.106 60.8964C231.306 60.8488 231.513 60.8428 231.715 60.8788C232.774 61.0758 233.865 60.9437 234.851 60.4994C235.909 59.8488 236.78 58.9201 237.374 57.8087C237.969 56.6973 238.265 55.4432 238.232 54.1752C238.232 53.2898 238.847 52.4677 239.83 52.6574C240.029 52.6572 240.227 52.6985 240.41 52.7787C240.593 52.8589 240.758 52.9764 240.896 53.1241C241.034 53.2718 241.141 53.4466 241.212 53.6382C241.282 53.8297 241.314 54.0339 241.306 54.2384C241.396 56.1416 240.958 58.0318 240.044 59.6888C239.129 61.3459 237.776 62.7017 236.142 63.5982C235.012 63.9737 233.818 64.103 232.637 63.9776Z" fill="#EA522F"/>
<path d="M239.709 53.7966C239.33 53.7718 238.97 53.6138 238.69 53.3491C238.41 53.0843 238.228 52.7288 238.172 52.342C238.091 51.0369 237.8 49.7547 237.311 48.5475C237.232 48.3572 237.192 48.1523 237.193 47.9454C237.194 47.7386 237.236 47.5341 237.317 47.3446C237.398 47.155 237.515 46.9845 237.662 46.8433C237.809 46.7022 237.983 46.5934 238.172 46.5238C238.547 46.378 238.963 46.389 239.331 46.5544C239.699 46.7199 239.989 47.0266 240.139 47.4092C240.738 48.88 241.111 50.4373 241.246 52.0258C241.272 52.2337 241.257 52.4447 241.203 52.6467C241.149 52.8486 241.056 53.0375 240.93 53.2023C240.804 53.367 240.648 53.5044 240.47 53.6065C240.292 53.7085 240.096 53.7731 239.893 53.7966H239.709Z" fill="#EA522F"/>
<path d="M237.802 47.4704C237.531 47.4843 237.261 47.4209 237.022 47.2869C236.783 47.153 236.585 46.9539 236.45 46.7115C233.929 42.1581 229.441 39.7549 226.183 41.3359C225.486 41.6708 224.875 42.1689 224.4 42.7905C224.113 43.0802 223.726 43.2424 223.324 43.2424C222.922 43.2424 222.535 43.0802 222.248 42.7905C222.101 42.6485 221.984 42.4771 221.904 42.2868C221.824 42.0964 221.782 41.8912 221.782 41.6838C221.782 41.4763 221.824 41.2711 221.904 41.0808C221.984 40.8904 222.101 40.719 222.248 40.577C223.02 39.575 224.01 38.7734 225.138 38.2371C227.883 37.3195 230.864 37.4921 233.492 38.721C236.12 39.9499 238.206 42.1461 239.339 44.8775C239.541 45.2386 239.596 45.667 239.492 46.0696C239.389 46.4722 239.135 46.8165 238.786 47.0277C238.515 47.2833 238.169 47.439 237.802 47.4704Z" fill="#EA522F"/>
<path d="M231.285 58.4122C230.887 58.4299 230.499 58.2881 230.2 58.0168C229.902 57.7455 229.718 57.3658 229.687 56.9576L229.072 45.0682C229.055 44.6424 229.199 44.2264 229.474 43.9078C229.749 43.5893 230.134 43.3931 230.547 43.3607C230.749 43.3522 230.951 43.3848 231.14 43.4565C231.33 43.5282 231.504 43.6377 231.652 43.7787C231.801 43.9196 231.921 44.0893 232.005 44.2781C232.09 44.4668 232.138 44.6708 232.146 44.8785L232.76 56.7679C232.787 56.9742 232.77 57.184 232.711 57.383C232.652 57.582 232.552 57.7656 232.418 57.9214C232.284 58.0773 232.119 58.2018 231.934 58.2864C231.749 58.3711 231.549 58.414 231.347 58.4122H231.285Z" fill="#EA522F"/>
<path d="M230.546 51.6453C230.236 51.6248 229.938 51.5153 229.686 51.3291L226.366 49.1156C226.196 48.9994 226.051 48.8499 225.937 48.6757C225.824 48.5015 225.745 48.3061 225.705 48.1006C225.665 47.895 225.665 47.6834 225.704 47.4778C225.744 47.2722 225.822 47.0766 225.935 46.9022C226.049 46.7278 226.194 46.578 226.363 46.4613C226.532 46.3447 226.722 46.2635 226.922 46.2224C227.122 46.1813 227.328 46.1811 227.528 46.2218C227.728 46.2624 227.918 46.3432 228.087 46.4595L231.407 48.7362C231.576 48.8451 231.722 48.9881 231.836 49.1566C231.95 49.3251 232.029 49.5156 232.069 49.7166C232.11 49.9176 232.11 50.1249 232.07 50.3259C232.03 50.527 231.951 50.7177 231.837 50.8864C231.702 51.1149 231.513 51.3044 231.287 51.4371C231.061 51.5699 230.806 51.6415 230.546 51.6453Z" fill="#EA522F"/>
<path d="M300.511 271.222H293.932C293.525 271.222 293.134 271.055 292.846 270.759C292.557 270.462 292.396 270.06 292.396 269.641C292.396 269.221 292.557 268.819 292.846 268.523C293.134 268.226 293.525 268.06 293.932 268.06H300.572C300.98 268.06 301.371 268.226 301.659 268.523C301.947 268.819 302.109 269.221 302.109 269.641C302.109 270.06 301.947 270.462 301.659 270.759C301.371 271.055 300.98 271.222 300.572 271.222H300.511Z" fill="#EA522F"/>
<path d="M289.936 222.714C289.549 222.715 289.175 222.566 288.89 222.296C288.605 222.027 288.43 221.656 288.399 221.259L286.37 196.595C286.335 196.185 286.457 195.778 286.71 195.459C286.962 195.14 287.326 194.935 287.723 194.887C287.921 194.861 288.123 194.877 288.316 194.933C288.509 194.99 288.688 195.086 288.843 195.216C288.999 195.346 289.127 195.508 289.219 195.69C289.312 195.873 289.367 196.073 289.382 196.279L291.473 221.006C291.49 221.214 291.466 221.423 291.404 221.622C291.342 221.82 291.243 222.004 291.111 222.163C290.98 222.321 290.819 222.452 290.639 222.546C290.458 222.641 290.261 222.698 290.059 222.714H289.936Z" fill="#EA522F"/>
<path d="M278.132 315.932C260.818 335.334 246.828 357.616 236.756 381.83C234.973 386.889 233.559 393.15 229.01 403.964C223.354 417.308 219.419 422.304 221.386 424.897C223.354 427.49 228.087 425.972 245.978 419.711C260.794 414.526 268.233 411.933 273.336 409.656C293.214 400.739 312.463 390.405 330.942 378.731C373.363 349.64 412.464 281.149 397.893 263.821C383.323 246.493 314.343 276.153 278.132 315.932Z" fill="#FDE3F9"/>
<path d="M221.08 426.478C220.737 426.48 220.404 426.363 220.132 426.148C219.861 425.932 219.668 425.63 219.583 425.288C219.498 424.946 219.527 424.585 219.664 424.262C219.802 423.939 220.041 423.673 220.342 423.506C289.971 384.183 350.189 329.369 396.603 263.062C396.84 262.718 397.199 262.485 397.603 262.413C398.006 262.342 398.421 262.439 398.755 262.682C399.089 262.925 399.316 263.295 399.385 263.71C399.454 264.125 399.36 264.552 399.124 264.896C352.453 331.613 291.874 386.755 221.818 426.288C221.596 426.426 221.339 426.492 221.08 426.478Z" fill="#AE709F"/>
<path d="M154.374 364.502C171.505 371.497 187.364 381.418 201.283 393.846C203.988 396.565 206.816 400.17 213.087 405.672C220.772 412.439 224.891 414.463 224.338 416.739C223.784 419.016 220.341 419.649 206.877 421.356C195.627 422.811 190.032 423.506 186.097 423.696C170.453 424.434 154.778 424.033 139.189 422.494C102.854 417.372 56.622 385.625 60.8026 369.688C64.9832 353.751 118.593 350.589 154.374 364.502Z" fill="#FDE3F9"/>
<path d="M224.338 418.32C198.674 416.974 173.202 413.034 148.288 406.557C117.578 398.495 87.9482 386.579 60.0652 371.079C59.8893 370.985 59.7334 370.857 59.6068 370.701C59.4802 370.545 59.3853 370.364 59.328 370.169C59.2706 369.974 59.252 369.77 59.273 369.568C59.294 369.365 59.3543 369.169 59.4503 368.992C59.5352 368.805 59.6562 368.639 59.8057 368.502C59.9551 368.365 60.13 368.261 60.3198 368.196C60.5095 368.131 60.7101 368.106 60.9094 368.123C61.1088 368.141 61.3026 368.199 61.4792 368.296C111.733 396.213 167.418 412.224 224.461 415.158C224.858 415.19 225.227 415.38 225.49 415.686C225.754 415.993 225.892 416.393 225.875 416.802C225.875 417.007 225.835 417.21 225.757 417.398C225.679 417.586 225.565 417.757 225.421 417.898C225.278 418.04 225.108 418.151 224.921 418.223C224.735 418.296 224.537 418.329 224.338 418.32Z" fill="#AE709F"/>
<path d="M250.713 370.636C241.855 379.649 231.588 387.067 220.342 392.581C217.944 393.593 214.993 394.415 209.952 396.882C203.804 399.98 201.468 402.067 200.238 401.119C199.009 400.17 199.562 397.767 202.206 388.47C204.357 380.945 205.464 377.15 206.448 374.621C210.212 364.434 214.691 354.542 219.85 345.023C232.822 323.205 264.546 302.335 273.03 309.292C281.514 316.249 268.849 351.601 250.713 370.636Z" fill="#B874A1"/>
<path d="M200.238 402.7C200.017 402.765 199.783 402.765 199.562 402.7C199.376 402.618 199.208 402.498 199.068 402.347C198.929 402.196 198.821 402.017 198.752 401.821C198.683 401.625 198.653 401.417 198.666 401.209C198.678 401.001 198.732 400.798 198.824 400.613C206.621 384.564 215.951 369.354 226.675 355.205C239.833 337.696 255.053 321.934 271.985 308.28C272.14 308.13 272.323 308.014 272.523 307.941C272.724 307.867 272.937 307.837 273.149 307.853C273.362 307.868 273.568 307.929 273.757 308.031C273.945 308.133 274.111 308.274 274.243 308.446C274.375 308.617 274.472 308.815 274.526 309.027C274.58 309.239 274.591 309.459 274.558 309.676C274.525 309.892 274.448 310.099 274.334 310.283C274.219 310.467 274.068 310.625 273.891 310.746C243.487 335.189 218.766 366.301 201.53 401.814C201.415 402.071 201.234 402.289 201.006 402.446C200.778 402.602 200.512 402.69 200.238 402.7Z" fill="#AE709F"/>
<path d="M238.663 430.843C227.092 426.04 216.405 419.238 207.063 410.732C204.572 407.899 201.924 405.218 199.132 402.7C193.967 398.02 191.201 396.376 191.57 395.111C191.939 393.846 194.275 393.151 203.435 392.075C210.997 391.19 214.809 390.747 217.514 390.621C228.1 390.186 238.702 390.546 249.237 391.696C273.829 395.364 304.938 416.993 302.048 427.87C299.159 438.748 262.824 440.518 238.663 430.843Z" fill="#B874A1"/>
<path d="M302.048 429.324C301.805 429.381 301.553 429.381 301.31 429.324C267.495 410.208 229.965 399.082 191.447 396.754C191.05 396.722 190.681 396.532 190.417 396.226C190.153 395.919 190.016 395.519 190.033 395.11C190.032 394.9 190.074 394.691 190.155 394.498C190.237 394.306 190.357 394.132 190.507 393.989C190.658 393.847 190.835 393.738 191.029 393.669C191.222 393.601 191.427 393.575 191.631 393.592C230.584 395.888 268.543 407.125 302.724 426.478C303.026 426.645 303.264 426.912 303.402 427.235C303.54 427.558 303.568 427.919 303.483 428.26C303.399 428.602 303.205 428.905 302.934 429.12C302.663 429.336 302.329 429.452 301.986 429.45L302.048 429.324Z" fill="#AE709F"/>
<path d="M213.763 364.502C211.306 374.849 207.148 384.688 201.467 393.593C199.513 396.065 197.687 398.64 195.995 401.308C192.921 406.241 192.183 408.708 190.892 408.581C189.601 408.455 189.048 406.557 187.019 398.968C185.359 392.644 184.56 389.545 184.13 387.269C182.519 378.414 181.512 369.454 181.117 360.454C181.117 339.268 194.52 310.367 203.434 311.505C212.349 312.644 218.497 343 213.763 364.502Z" fill="#B874A1"/>
<path d="M189.601 410.351C189.219 410.368 188.846 410.233 188.559 409.974C188.273 409.714 188.095 409.351 188.064 408.959C186.774 394.225 186.918 379.395 188.494 364.69C190.456 346.448 194.586 328.522 200.79 311.314C200.863 311.119 200.972 310.941 201.111 310.789C201.251 310.637 201.419 310.515 201.604 310.43C201.79 310.345 201.99 310.298 202.193 310.293C202.396 310.287 202.598 310.323 202.788 310.397C202.978 310.472 203.151 310.584 203.299 310.728C203.446 310.872 203.565 311.044 203.647 311.235C203.73 311.426 203.776 311.632 203.781 311.841C203.787 312.049 203.752 312.257 203.679 312.453C192.64 343.233 188.439 376.165 191.384 408.833C191.4 409.041 191.377 409.25 191.315 409.448C191.253 409.647 191.153 409.83 191.022 409.989C190.89 410.148 190.73 410.278 190.549 410.373C190.369 410.467 190.172 410.524 189.969 410.54L189.601 410.351Z" fill="#AE709F"/>
<path d="M158.187 407.76C167.058 402.314 176.768 398.464 186.898 396.376C188.988 396.06 191.509 395.997 196.058 395.048C201.591 393.846 203.866 392.645 204.665 393.657C205.464 394.669 204.665 396.503 200.669 403.269C197.472 408.835 195.874 411.681 194.521 413.515C189.501 420.909 183.974 427.925 177.983 434.511C163.351 449.373 133.78 459.807 128.369 452.282C122.959 444.756 139.927 419.333 158.187 407.76Z" fill="#B874A1"/>
<path d="M129.413 455C129.124 454.989 128.843 454.894 128.604 454.726C128.365 454.558 128.176 454.325 128.061 454.051C127.892 453.674 127.875 453.243 128.013 452.852C128.151 452.462 128.433 452.143 128.798 451.964C157.886 438.578 183.7 418.678 204.357 393.719C204.49 393.561 204.652 393.432 204.834 393.338C205.015 393.245 205.213 393.19 205.416 393.175C205.619 393.16 205.822 393.187 206.015 393.253C206.208 393.319 206.386 393.424 206.539 393.561C206.693 393.698 206.818 393.865 206.909 394.052C207 394.239 207.054 394.442 207.068 394.651C207.082 394.859 207.056 395.068 206.992 395.267C206.928 395.465 206.826 395.648 206.693 395.806C185.712 421.01 159.547 441.099 130.09 454.621C129.903 454.809 129.668 454.94 129.413 455Z" fill="#AE709F"/>
<path d="M205.157 366.905C213.333 372.724 211.981 389.103 202.206 403.585C192.43 418.068 177.921 425.024 169.806 419.206C161.691 413.388 162.982 396.945 172.757 382.526C182.532 368.107 197.041 361.087 205.157 366.905Z" fill="#FFC5D2"/>
<path d="M227.288 425.973C224.952 435.965 209.521 440.709 192.798 436.661C176.076 432.614 164.333 421.167 166.608 411.364C168.883 401.562 184.376 396.629 201.098 400.74C217.82 404.851 229.563 415.981 227.288 425.973Z" fill="#FFC5D2"/>
<path d="M229.995 425.15C220.711 428.818 208.169 418.383 201.96 401.877C195.75 385.371 198.333 368.991 207.616 365.323C216.899 361.655 229.441 372.027 235.651 388.533C241.86 405.039 239.278 421.419 229.995 425.15Z" fill="#FFC5D2"/>
<path d="M209.952 391.38C210.122 393.492 210.019 395.619 209.644 397.704C209.653 402.673 211.349 407.482 214.44 411.301C210.804 410.387 207.009 410.387 203.373 411.301C199.377 412.313 197.902 414.02 194.889 413.957C191.877 413.894 188.741 412.755 184.745 407.253C188.958 405.932 192.645 403.249 195.258 399.601C198.455 394.796 199.671 388.883 198.64 383.158C203.373 384.423 208.845 387.016 209.952 391.38Z" fill="#731275"/>
<path d="M61.6022 289.496C95.6242 289.496 123.204 261.125 123.204 226.128C123.204 191.131 95.6242 162.76 61.6022 162.76C27.5802 162.76 0 191.131 0 226.128C0 261.125 27.5802 289.496 61.6022 289.496Z" fill="#FDE3F9"/>
<path d="M67.134 229.798C67.2157 230.591 67.1343 231.394 66.895 232.153C66.6557 232.912 66.2638 233.611 65.7449 234.204C65.226 234.797 64.5918 235.271 63.8832 235.596C63.1745 235.921 62.4075 236.089 61.6317 236.089C60.856 236.089 60.0889 235.921 59.3803 235.596C58.6717 235.271 58.0372 234.797 57.5183 234.204C56.9995 233.611 56.6077 232.912 56.3684 232.153C56.1291 231.394 56.0477 230.591 56.1294 229.798C56.2732 228.4 56.915 227.106 57.9309 226.166C58.9469 225.225 60.2651 224.705 61.6317 224.705C62.9984 224.705 64.3166 225.225 65.3325 226.166C66.3485 227.106 66.9902 228.4 67.134 229.798Z" fill="#9A3F91"/>
<path d="M61.9711 176.23H61.2334C60.4864 176.23 59.8809 176.853 59.8809 177.622V225.306C59.8809 226.074 60.4864 226.697 61.2334 226.697H61.9711C62.7181 226.697 63.3237 226.074 63.3237 225.306V177.622C63.3237 176.853 62.7181 176.23 61.9711 176.23Z" fill="#9A3F91"/>
<path d="M88.543 202.621L87.8629 201.889C87.3934 201.385 86.615 201.367 86.1244 201.85L62.4052 225.199C61.9146 225.682 61.8975 226.483 62.367 226.987L63.0471 227.718C63.5166 228.223 64.2949 228.241 64.7855 227.758L88.5047 204.409C88.9953 203.926 89.0125 203.125 88.543 202.621Z" fill="#9A3F91"/>
<path d="M9.40758 226.129H1.4767C1.19355 226.13 0.921003 226.019 0.71515 225.819C0.509298 225.619 0.385847 225.345 0.370117 225.054C0.370117 224.752 0.486604 224.463 0.694137 224.249C0.90167 224.036 1.1832 223.916 1.4767 223.916H9.7149C9.85749 223.916 9.99856 223.946 10.1295 224.003C10.2605 224.061 10.3787 224.146 10.4766 224.253C10.5745 224.36 10.6502 224.486 10.699 224.623C10.7477 224.761 10.7685 224.908 10.7601 225.054C10.7676 225.227 10.7346 225.398 10.6641 225.554C10.5936 225.711 10.4877 225.848 10.3551 225.953C10.2225 226.058 10.067 226.129 9.90215 226.16C9.73725 226.191 9.5677 226.18 9.40758 226.129Z" fill="#9A3F91"/>
<path d="M122.098 226.129H113.86C113.722 226.129 113.586 226.102 113.46 226.048C113.333 225.994 113.218 225.914 113.12 225.815C113.023 225.715 112.947 225.596 112.894 225.466C112.842 225.335 112.814 225.196 112.814 225.054C112.806 224.908 112.827 224.761 112.876 224.623C112.924 224.486 113 224.36 113.098 224.253C113.196 224.146 113.314 224.061 113.445 224.003C113.576 223.946 113.717 223.916 113.86 223.916H122.098C122.391 223.916 122.673 224.036 122.88 224.249C123.088 224.463 123.204 224.752 123.204 225.054C123.189 225.345 123.065 225.619 122.859 225.819C122.653 226.019 122.381 226.13 122.098 226.129Z" fill="#9A3F91"/>
<path d="M62.9555 278.745V287.283C62.9408 287.563 62.8259 287.828 62.633 288.026C62.4401 288.224 62.1827 288.343 61.9103 288.358C61.6271 288.358 61.3546 288.247 61.1487 288.047C60.9429 287.847 60.8194 287.573 60.8037 287.283V278.745C60.8194 278.454 60.9429 278.181 61.1487 277.981C61.3546 277.781 61.6271 277.669 61.9103 277.67C62.1827 277.685 62.4401 277.803 62.633 278.002C62.8259 278.2 62.9408 278.465 62.9555 278.745Z" fill="#9A3F91"/>
<path d="M62.9555 162.824V171.298C62.956 171.59 62.8479 171.87 62.6535 172.082C62.459 172.293 62.193 172.42 61.9103 172.437C61.6168 172.437 61.3355 172.317 61.1279 172.103C60.9204 171.89 60.8037 171.6 60.8037 171.298V162.824C60.8037 162.522 60.9204 162.232 61.1279 162.019C61.3355 161.805 61.6168 161.686 61.9103 161.686C62.193 161.702 62.459 161.829 62.6535 162.041C62.8479 162.252 62.956 162.533 62.9555 162.824Z" fill="#9A3F91"/>
<path d="M311.393 110.715C306.311 110.812 301.324 109.287 297.119 106.35C292.914 103.413 289.697 99.2072 287.91 94.3119C286.124 89.4166 285.856 84.0723 287.144 79.014C288.432 73.9558 291.211 69.4324 295.101 66.066C300.05 61.6296 306.509 59.3971 313.058 59.8597C319.606 60.3222 325.708 63.4419 330.021 68.5324C334.334 73.6229 336.504 80.2673 336.054 87.0038C335.605 93.7404 332.572 100.017 327.623 104.454C323.131 108.498 317.362 110.723 311.393 110.715ZM311.393 66.4454C306.875 66.4037 302.5 68.0689 299.097 71.1253C295.371 74.4798 293.093 79.2195 292.765 84.3015C292.436 89.3836 294.084 94.3918 297.345 98.2243C300.606 102.057 305.213 104.4 310.154 104.738C315.094 105.076 319.963 103.381 323.689 100.027C326.541 97.5784 328.608 94.3012 329.619 90.6243C330.63 86.9473 330.538 83.0419 329.356 79.4195C328.173 75.7971 325.955 72.6265 322.991 70.3228C320.027 68.0191 316.456 66.6897 312.745 66.5087L311.393 66.4454Z" fill="#FFC5D2"/>
<path d="M349.879 133.985C349.439 133.981 349.004 133.883 348.602 133.698C348.2 133.513 347.839 133.245 347.543 132.91L322.951 104.071C322.684 103.762 322.479 103.401 322.35 103.01C322.22 102.618 322.168 102.204 322.197 101.791C322.226 101.379 322.334 100.976 322.517 100.608C322.699 100.239 322.951 99.9114 323.258 99.6445C323.882 99.1015 324.688 98.8307 325.503 98.8898C326.319 98.9489 327.079 99.3331 327.623 99.9607L352.215 128.736C352.482 129.045 352.687 129.406 352.816 129.797C352.946 130.189 352.997 130.603 352.969 131.016C352.94 131.428 352.832 131.831 352.649 132.2C352.467 132.568 352.215 132.896 351.908 133.163C351.639 133.431 351.322 133.642 350.973 133.783C350.625 133.924 350.253 133.993 349.879 133.985Z" fill="#FFC5D2"/>
<path d="M331.865 132.469C331.431 132.481 331 132.391 330.606 132.204C330.211 132.018 329.864 131.74 329.59 131.394C329.323 131.084 329.119 130.723 328.989 130.332C328.86 129.94 328.808 129.526 328.837 129.113C328.865 128.701 328.974 128.298 329.156 127.93C329.339 127.561 329.591 127.233 329.898 126.967L348.956 109.891C349.579 109.461 350.333 109.28 351.077 109.382C351.82 109.484 352.502 109.863 352.993 110.446C353.484 111.029 353.751 111.776 353.744 112.548C353.736 113.319 353.455 114.062 352.953 114.635L333.894 131.71C333.329 132.207 332.608 132.476 331.865 132.469Z" fill="#FFC5D2"/>
<path d="M365.802 93.7641C359.99 93.7799 354.36 91.6779 349.912 87.8308C345.463 83.9837 342.483 78.6401 341.499 72.7479C340.516 66.8556 341.593 60.7955 344.539 55.6424C347.486 50.4892 352.111 46.5761 357.596 44.5971C363.08 42.6181 369.068 42.701 374.499 44.8312C379.929 46.9614 384.451 51.0012 387.261 56.2341C390.072 61.467 390.99 67.5547 389.853 73.4176C388.715 79.2805 385.596 84.5395 381.048 88.2621C376.714 91.8102 371.341 93.7489 365.802 93.7641ZM365.802 49.1155C362.285 49.0568 358.825 50.0338 355.83 51.9312C352.835 53.8286 350.43 56.5674 348.899 59.8246C347.367 63.0817 346.773 66.7215 347.186 70.3146C347.599 73.9076 349.003 77.3043 351.231 80.1039C353.139 82.4798 355.58 84.3419 358.345 85.5292C361.11 86.7164 364.114 87.1931 367.097 86.918C370.081 86.6429 372.955 85.6242 375.47 83.9501C377.985 82.2761 380.066 79.997 381.533 77.3099C383 74.6228 383.808 71.6087 383.888 68.5281C383.968 65.4475 383.318 62.3933 381.992 59.6295C380.667 56.8657 378.708 54.4755 376.283 52.6656C373.858 50.8557 371.042 49.6807 368.076 49.242L365.802 49.1155Z" fill="#B874A1"/>
<path d="M352.4 53.9843C351.937 53.9868 351.481 53.8797 351.065 53.6713C350.649 53.463 350.285 53.1589 350.002 52.7827L327.316 22.743C327.028 22.449 326.8 22.0993 326.644 21.7139C326.488 21.3286 326.407 20.9153 326.407 20.4979C326.407 20.0804 326.488 19.6672 326.644 19.2818C326.8 18.8965 327.028 18.5468 327.316 18.2528C327.969 17.7475 328.785 17.5184 329.597 17.6125C330.408 17.7066 331.154 18.1167 331.681 18.7587L354.552 48.7985C355.054 49.4538 355.285 50.2869 355.193 51.1162C355.1 51.9455 354.693 52.7037 354.06 53.2254C353.592 53.6413 353.014 53.9054 352.4 53.9843Z" fill="#B874A1"/>
<path d="M327.317 42.4124C326.902 42.4128 326.492 42.327 326.111 42.1602C325.73 41.9935 325.386 41.7492 325.098 41.442C324.811 41.1349 324.587 40.7712 324.44 40.3728C324.293 39.9745 324.226 39.5496 324.243 39.1239L325.103 19.3292C325.111 18.8732 325.22 18.4249 325.422 18.0191C325.625 17.6134 325.915 17.261 326.271 16.9893C326.618 16.717 327.015 16.5204 327.437 16.4117C327.86 16.3029 328.301 16.2843 328.731 16.3569L347.789 20.0881C348.604 20.2475 349.325 20.7334 349.792 21.4391C350.259 22.1448 350.434 23.0124 350.279 23.851C350.124 24.6897 349.652 25.4306 348.966 25.911C348.28 26.3913 347.437 26.5716 346.621 26.4123L331.067 23.3767L330.391 39.5033C330.329 40.2974 329.978 41.0381 329.408 41.5774C328.838 42.1168 328.091 42.415 327.317 42.4124Z" fill="#B874A1"/>
</svg>
